<mxfile host="app.diagrams.net" modified="2023-09-15T15:47:22.305Z" agent="Mozilla/5.0 (Windows NT 10.0; Win64; x64) AppleWebKit/537.36 (KHTML, like Gecko) Chrome/116.0.0.0 Safari/537.36" etag="m6G-oJzMw37vnoKMeEMR" version="21.7.5" type="github">
  <diagram id="kgpKYQtTHZ0yAKxKKP6v" name="Page-1">
    <mxGraphModel dx="1664" dy="1953" grid="1" gridSize="10" guides="1" tooltips="1" connect="1" arrows="1" fold="1" page="1" pageScale="1" pageWidth="850" pageHeight="1100" math="0" shadow="0">
      <root>
        <mxCell id="0" />
        <mxCell id="1" parent="0" />
        <mxCell id="HwZoV1itRJIIL3aCf-NI-1" value="PROCESO DE FISCALIZACION" style="swimlane;childLayout=stackLayout;resizeParent=1;resizeParentMax=0;startSize=20;html=1;" vertex="1" parent="1">
          <mxGeometry x="80" y="-1080" width="670" height="440" as="geometry" />
        </mxCell>
        <mxCell id="HwZoV1itRJIIL3aCf-NI-2" value="SUB GERENCIA" style="swimlane;startSize=20;html=1;" vertex="1" collapsed="1" parent="HwZoV1itRJIIL3aCf-NI-1">
          <mxGeometry y="20" width="40" height="420" as="geometry">
            <mxRectangle y="20" width="140" height="420" as="alternateBounds" />
          </mxGeometry>
        </mxCell>
        <mxCell id="HwZoV1itRJIIL3aCf-NI-3" value="FISCALIZADOR" style="swimlane;startSize=20;html=1;" vertex="1" parent="HwZoV1itRJIIL3aCf-NI-1">
          <mxGeometry x="40" y="20" width="270" height="420" as="geometry" />
        </mxCell>
        <mxCell id="HwZoV1itRJIIL3aCf-NI-17" value="" style="edgeStyle=orthogonalEdgeStyle;rounded=0;orthogonalLoop=1;jettySize=auto;html=1;" edge="1" parent="HwZoV1itRJIIL3aCf-NI-3" source="HwZoV1itRJIIL3aCf-NI-12" target="HwZoV1itRJIIL3aCf-NI-16">
          <mxGeometry relative="1" as="geometry" />
        </mxCell>
        <mxCell id="HwZoV1itRJIIL3aCf-NI-12" value="INICIO" style="rounded=1;whiteSpace=wrap;html=1;" vertex="1" parent="HwZoV1itRJIIL3aCf-NI-3">
          <mxGeometry x="79" y="30" width="80" height="20" as="geometry" />
        </mxCell>
        <mxCell id="HwZoV1itRJIIL3aCf-NI-16" value="Realiza la intervencion" style="whiteSpace=wrap;html=1;rounded=1;" vertex="1" parent="HwZoV1itRJIIL3aCf-NI-3">
          <mxGeometry x="74" y="69" width="90" height="40" as="geometry" />
        </mxCell>
        <mxCell id="HwZoV1itRJIIL3aCf-NI-26" value="" style="edgeStyle=orthogonalEdgeStyle;rounded=0;orthogonalLoop=1;jettySize=auto;html=1;" edge="1" parent="HwZoV1itRJIIL3aCf-NI-3" source="HwZoV1itRJIIL3aCf-NI-23" target="HwZoV1itRJIIL3aCf-NI-25">
          <mxGeometry relative="1" as="geometry" />
        </mxCell>
        <mxCell id="HwZoV1itRJIIL3aCf-NI-23" value="Verificar los documentos" style="whiteSpace=wrap;html=1;rounded=1;" vertex="1" parent="HwZoV1itRJIIL3aCf-NI-3">
          <mxGeometry x="66.5" y="138" width="105" height="50" as="geometry" />
        </mxCell>
        <mxCell id="HwZoV1itRJIIL3aCf-NI-38" value="" style="edgeStyle=orthogonalEdgeStyle;rounded=0;orthogonalLoop=1;jettySize=auto;html=1;" edge="1" parent="HwZoV1itRJIIL3aCf-NI-3" source="HwZoV1itRJIIL3aCf-NI-25" target="HwZoV1itRJIIL3aCf-NI-37">
          <mxGeometry relative="1" as="geometry" />
        </mxCell>
        <mxCell id="HwZoV1itRJIIL3aCf-NI-39" value="si" style="edgeLabel;html=1;align=center;verticalAlign=middle;resizable=0;points=[];" vertex="1" connectable="0" parent="HwZoV1itRJIIL3aCf-NI-38">
          <mxGeometry x="0.0718" y="-1" relative="1" as="geometry">
            <mxPoint as="offset" />
          </mxGeometry>
        </mxCell>
        <mxCell id="HwZoV1itRJIIL3aCf-NI-41" value="" style="edgeStyle=orthogonalEdgeStyle;rounded=0;orthogonalLoop=1;jettySize=auto;html=1;" edge="1" parent="HwZoV1itRJIIL3aCf-NI-3" source="HwZoV1itRJIIL3aCf-NI-25" target="HwZoV1itRJIIL3aCf-NI-40">
          <mxGeometry relative="1" as="geometry" />
        </mxCell>
        <mxCell id="HwZoV1itRJIIL3aCf-NI-42" value="no" style="edgeLabel;html=1;align=center;verticalAlign=middle;resizable=0;points=[];" vertex="1" connectable="0" parent="HwZoV1itRJIIL3aCf-NI-41">
          <mxGeometry x="-0.3473" y="1" relative="1" as="geometry">
            <mxPoint as="offset" />
          </mxGeometry>
        </mxCell>
        <mxCell id="HwZoV1itRJIIL3aCf-NI-25" value="Esta en&lt;br&gt;&amp;nbsp;regla&amp;nbsp;" style="rhombus;whiteSpace=wrap;html=1;rounded=1;" vertex="1" parent="HwZoV1itRJIIL3aCf-NI-3">
          <mxGeometry y="238" width="66.5" height="60" as="geometry" />
        </mxCell>
        <mxCell id="HwZoV1itRJIIL3aCf-NI-37" value="Fin" style="ellipse;whiteSpace=wrap;html=1;rounded=1;" vertex="1" parent="HwZoV1itRJIIL3aCf-NI-3">
          <mxGeometry x="16.629999999999995" y="357" width="33.25" height="30" as="geometry" />
        </mxCell>
        <mxCell id="HwZoV1itRJIIL3aCf-NI-40" value="&lt;b&gt;Generar las Actas de:&lt;br&gt;&lt;/b&gt;-Situación vehicular&lt;br&gt;-Control&lt;br&gt;-Intervención" style="whiteSpace=wrap;html=1;rounded=1;align=left;" vertex="1" parent="HwZoV1itRJIIL3aCf-NI-3">
          <mxGeometry x="122" y="228" width="135" height="80" as="geometry" />
        </mxCell>
        <mxCell id="HwZoV1itRJIIL3aCf-NI-4" value="MOTOTAXISTA" style="swimlane;startSize=20;html=1;" vertex="1" parent="HwZoV1itRJIIL3aCf-NI-1">
          <mxGeometry x="310" y="20" width="190" height="420" as="geometry" />
        </mxCell>
        <mxCell id="HwZoV1itRJIIL3aCf-NI-18" value="Entrega los documentos" style="whiteSpace=wrap;html=1;rounded=1;" vertex="1" parent="HwZoV1itRJIIL3aCf-NI-4">
          <mxGeometry x="50" y="148" width="90" height="30" as="geometry" />
        </mxCell>
        <mxCell id="HwZoV1itRJIIL3aCf-NI-31" style="edgeStyle=orthogonalEdgeStyle;rounded=0;orthogonalLoop=1;jettySize=auto;html=1;entryX=0.5;entryY=0;entryDx=0;entryDy=0;" edge="1" parent="HwZoV1itRJIIL3aCf-NI-4" source="HwZoV1itRJIIL3aCf-NI-28" target="HwZoV1itRJIIL3aCf-NI-18">
          <mxGeometry relative="1" as="geometry" />
        </mxCell>
        <mxCell id="HwZoV1itRJIIL3aCf-NI-33" value="si" style="edgeLabel;html=1;align=center;verticalAlign=middle;resizable=0;points=[];" vertex="1" connectable="0" parent="HwZoV1itRJIIL3aCf-NI-31">
          <mxGeometry x="-0.1369" y="-1" relative="1" as="geometry">
            <mxPoint as="offset" />
          </mxGeometry>
        </mxCell>
        <mxCell id="HwZoV1itRJIIL3aCf-NI-28" value="&lt;font style=&quot;font-size: 11px;&quot;&gt;Tiene documentos&amp;nbsp;&lt;/font&gt;" style="rhombus;whiteSpace=wrap;html=1;rounded=1;fontSize=11;" vertex="1" parent="HwZoV1itRJIIL3aCf-NI-4">
          <mxGeometry x="48.75" y="28" width="92.5" height="81" as="geometry" />
        </mxCell>
        <mxCell id="HwZoV1itRJIIL3aCf-NI-43" value="Se le incauta el vehiculo" style="whiteSpace=wrap;html=1;align=center;rounded=1;" vertex="1" parent="HwZoV1itRJIIL3aCf-NI-4">
          <mxGeometry x="49" y="220" width="92.5" height="40" as="geometry" />
        </mxCell>
        <mxCell id="HwZoV1itRJIIL3aCf-NI-10" value="MESA DE PATES" style="swimlane;startSize=20;html=1;verticalAlign=middle;" vertex="1" collapsed="1" parent="HwZoV1itRJIIL3aCf-NI-1">
          <mxGeometry x="500" y="20" width="40" height="420" as="geometry">
            <mxRectangle x="500" y="20" width="130" height="420" as="alternateBounds" />
          </mxGeometry>
        </mxCell>
        <mxCell id="HwZoV1itRJIIL3aCf-NI-11" value="ALMACEN" style="swimlane;startSize=20;html=1;" vertex="1" parent="HwZoV1itRJIIL3aCf-NI-1">
          <mxGeometry x="540" y="20" width="130" height="420" as="geometry" />
        </mxCell>
        <mxCell id="HwZoV1itRJIIL3aCf-NI-48" value="" style="edgeStyle=orthogonalEdgeStyle;rounded=0;orthogonalLoop=1;jettySize=auto;html=1;" edge="1" parent="HwZoV1itRJIIL3aCf-NI-11" source="HwZoV1itRJIIL3aCf-NI-45" target="HwZoV1itRJIIL3aCf-NI-47">
          <mxGeometry relative="1" as="geometry" />
        </mxCell>
        <mxCell id="HwZoV1itRJIIL3aCf-NI-45" value="Es recepcionado" style="whiteSpace=wrap;html=1;rounded=1;" vertex="1" parent="HwZoV1itRJIIL3aCf-NI-11">
          <mxGeometry x="15" y="220" width="100" height="40" as="geometry" />
        </mxCell>
        <mxCell id="HwZoV1itRJIIL3aCf-NI-47" value="Fin" style="ellipse;whiteSpace=wrap;html=1;rounded=1;" vertex="1" parent="HwZoV1itRJIIL3aCf-NI-11">
          <mxGeometry x="50" y="356" width="30" height="30" as="geometry" />
        </mxCell>
        <mxCell id="HwZoV1itRJIIL3aCf-NI-29" value="" style="edgeStyle=orthogonalEdgeStyle;rounded=0;orthogonalLoop=1;jettySize=auto;html=1;" edge="1" parent="HwZoV1itRJIIL3aCf-NI-1" source="HwZoV1itRJIIL3aCf-NI-16" target="HwZoV1itRJIIL3aCf-NI-28">
          <mxGeometry relative="1" as="geometry" />
        </mxCell>
        <mxCell id="HwZoV1itRJIIL3aCf-NI-32" style="edgeStyle=orthogonalEdgeStyle;rounded=0;orthogonalLoop=1;jettySize=auto;html=1;entryX=1;entryY=0.5;entryDx=0;entryDy=0;" edge="1" parent="HwZoV1itRJIIL3aCf-NI-1" source="HwZoV1itRJIIL3aCf-NI-18" target="HwZoV1itRJIIL3aCf-NI-23">
          <mxGeometry relative="1" as="geometry" />
        </mxCell>
        <mxCell id="HwZoV1itRJIIL3aCf-NI-44" value="" style="edgeStyle=orthogonalEdgeStyle;rounded=0;orthogonalLoop=1;jettySize=auto;html=1;" edge="1" parent="HwZoV1itRJIIL3aCf-NI-1" source="HwZoV1itRJIIL3aCf-NI-40" target="HwZoV1itRJIIL3aCf-NI-43">
          <mxGeometry relative="1" as="geometry" />
        </mxCell>
        <mxCell id="HwZoV1itRJIIL3aCf-NI-46" value="" style="edgeStyle=orthogonalEdgeStyle;rounded=0;orthogonalLoop=1;jettySize=auto;html=1;" edge="1" parent="HwZoV1itRJIIL3aCf-NI-1" source="HwZoV1itRJIIL3aCf-NI-43" target="HwZoV1itRJIIL3aCf-NI-45">
          <mxGeometry relative="1" as="geometry" />
        </mxCell>
        <mxCell id="HwZoV1itRJIIL3aCf-NI-49" style="edgeStyle=orthogonalEdgeStyle;rounded=0;orthogonalLoop=1;jettySize=auto;html=1;entryX=0.5;entryY=0;entryDx=0;entryDy=0;exitX=1;exitY=0.5;exitDx=0;exitDy=0;" edge="1" parent="HwZoV1itRJIIL3aCf-NI-1" source="HwZoV1itRJIIL3aCf-NI-28" target="HwZoV1itRJIIL3aCf-NI-40">
          <mxGeometry relative="1" as="geometry">
            <Array as="points">
              <mxPoint x="475" y="89" />
              <mxPoint x="475" y="221" />
              <mxPoint x="230" y="221" />
            </Array>
          </mxGeometry>
        </mxCell>
        <mxCell id="HwZoV1itRJIIL3aCf-NI-50" value="no" style="edgeLabel;html=1;align=center;verticalAlign=middle;resizable=0;points=[];" vertex="1" connectable="0" parent="HwZoV1itRJIIL3aCf-NI-49">
          <mxGeometry x="-0.5864" y="-1" relative="1" as="geometry">
            <mxPoint as="offset" />
          </mxGeometry>
        </mxCell>
      </root>
    </mxGraphModel>
  </diagram>
</mxfile>
